#!OML:ASF E:\Steps\Project 1\Capture day 1\Session 2\Subject.ASF
:FULLY-SPECIFIED
:DEGREES
148
root -1.22347 17.9675 20.9842 -155.791 -0.265612 178.528
lowerback -27.8397 -2.1869 -6.65844
upperback -1.22388 -1.36495 0.000331371
thorax 13.5481 -1.27191 3.0645
lowerneck -3.03037 -6.17718 -0.0279253
upperneck 15.5364 -8.10566 2.77865
head 5.29191 -3.49668 0.448162
rclavicle 3.62782e-015 9.93923e-015
rhumerus -38.6949 -15.7428 -79.6045
rradius 32.5759
rwrist -3.80312
rhand -7.24644 -58.1031
rfingers 7.12502
rthumb 18.6338 -87.2306
lclavicle 3.62782e-015 9.93923e-015
lhumerus -28.595 1.79885 83.263
lradius 19.9527
lwrist -5.5716
lhand -22.7892 -13.0181
lfingers 7.12502
lthumb 3.6467 16.9305
rfemur -22.8626 5.93379 19.8485
rtibia 7.06084
rfoot -15.6581 -3.72003
rtoes -33.8245
lfemur -22.5951 -5.9053 -22.9376
ltibia 6.7221
lfoot -6.06961 -5.05888
ltoes -35.5773
149
root -1.22407 17.9673 20.9834 -155.819 -0.293188 178.5
lowerback -27.8185 -2.19526 -6.65665
upperback -1.21869 -1.37416 -0.0194009
thorax 13.5444 -1.275 3.03922
lowerneck -2.99658 -6.12127 -0.0419925
upperneck 15.4378 -8.03646 2.82191
head 5.25683 -3.46579 0.469861
rclavicle 5.96354e-016 2.3059e-014
rhumerus -38.7352 -15.8393 -79.5603
rradius 32.4939
rwrist -3.78357
rhand -7.34681 -57.702
rfingers 7.12502
rthumb 18.5372 -86.8388
lclavicle 5.96354e-016 2.3059e-014
lhumerus -28.5893 1.75057 83.2543
lradius 19.9312
lwrist -5.68393
lhand -22.6265 -13.0398
lfingers 7.12502
lthumb 3.80381 16.906
rfemur -22.8187 5.9337 19.8165
rtibia 7.04518
rfoot -15.6489 -3.73525
rtoes -33.6034
lfemur -22.5687 -5.87019 -22.9904
ltibia 6.73104
lfoot -6.01814 -5.22439
ltoes -35.5013
150
root -1.22408 17.9671 20.9827 -155.834 -0.287555 178.478
lowerback -27.7542 -2.18413 -6.66572
upperback -1.59255 -1.36367 -0.115253
thorax 13.8485 -1.28869 3.12543
lowerneck -2.96383 -6.16347 -0.04165
upperneck 15.477 -8.08831 2.81353
head 5.26394 -3.48902 0.464991
rclavicle -1.27222e-014 8.34896e-015
rhumerus -38.7685 -15.9108 -79.4797
rradius 32.4142
rwrist -3.62425
rhand -7.23922 -57.8356
rfingers 7.12502
rthumb 18.6407 -86.9624
lclavicle -1.27222e-014 8.34896e-015
lhumerus -28.581 1.72941 83.2623
lradius 19.9212
lwrist -5.76843
lhand -22.5667 -12.8546
lfingers 7.12502
lthumb 3.86155 17.0902
rfemur -22.8147 6.03453 19.7717
rtibia 7.07884
rfoot -15.6703 -3.84606
rtoes -33.6047
lfemur -22.5575 -5.87321 -23.0253
ltibia 6.73426
lfoot -5.96504 -5.28418
ltoes -35.2021
151
root -1.22265 17.9669 20.9832 -155.844 -0.261301 178.469
lowerback -27.7133 -2.17023 -6.67629
upperback -1.60753 -1.34563 -0.129913
thorax 13.8063 -1.27991 3.12233
lowerneck -2.95374 -6.21698 0.00616486
upperneck 15.5689 -8.15565 2.7895
head 5.2889 -3.51507 0.445579
rclavicle -8.79622e-015 -4.77083e-015
rhumerus -38.8026 -15.9703 -79.4314
rradius 32.3423
rwrist -3.47776
rhand -6.95867 -58.2922
rfingers 7.12502
rthumb 18.9106 -87.3929
lclavicle -8.79622e-015 -4.77083e-015
lhumerus -28.6116 1.58981 83.2776
lradius 19.96
lwrist -5.62615
lhand -22.9567 -12.6078
lfingers 7.12502
lthumb 3.4849 17.3434
rfemur -22.8061 6.14377 19.7441
rtibia 7.08938
rfoot -15.697 -3.96442
rtoes -33.9092
lfemur -22.5392 -5.92678 -23.0227
ltibia 6.69668
lfoot -5.93704 -5.16854
ltoes -34.9943
152
root -1.22153 17.9666 20.9844 -155.827 -0.237014 178.483
lowerback -27.7412 -2.15185 -6.63701
upperback -1.6123 -1.33047 -0.157027
thorax 13.8124 -1.2705 3.07351
lowerneck -2.92037 -6.23282 0.0393639
upperneck 15.5701 -8.18057 2.81855
head 5.28391 -3.52248 0.448995
rclavicle 6.16232e-015 -1.43125e-014
rhumerus -38.8029 -15.9902 -79.46
rradius 32.2807
rwrist -3.46023
rhand -6.73263 -58.5398
rfingers 7.12502
rthumb 19.128 -87.6192
lclavicle 6.16232e-015 -1.43125e-014
lhumerus -28.6357 1.3578 83.2967
lradius 20.0039
lwrist -5.4079
lhand -23.1477 -12.3645
lfingers 7.12502
lthumb 3.30045 17.5897
rfemur -22.8693 6.1454 19.7588
rtibia 7.15887
rfoot -15.7605 -3.95019
rtoes -34.1347
lfemur -22.5588 -5.94643 -22.9936
ltibia 6.6882
lfoot -5.90567 -5.11254
ltoes -34.5352
153
root -1.22045 17.9665 20.9846 -155.798 -0.246774 178.531
lowerback -27.803 -2.1364 -6.55349
upperback -1.60259 -1.33001 -0.167099
thorax 13.8553 -1.26592 3.01263
lowerneck -2.89511 -6.20184 0.00347936
upperneck 15.5077 -8.14525 2.88052
head 5.2638 -3.50638 0.477246
rclavicle 6.60959e-015 9.54166e-015
rhumerus -38.7672 -16.0274 -79.4813
rradius 32.2074
rwrist -3.44538
rhand -6.53209 -58.5982
rfingers 7.12502
rthumb 19.3208 -87.6584
lclavicle 6.60959e-015 9.54166e-015
lhumerus -28.6059 1.26296 83.2866
lradius 20.0069
lwrist -5.31487
lhand -23.1259 -12.3425
lfingers 7.12502
lthumb 3.32153 17.6113
rfemur -22.9142 6.13111 19.819
rtibia 7.17035
rfoot -15.7642 -3.90354
rtoes -34.0337
lfemur -22.5961 -5.92686 -22.9259
ltibia 6.70066
lfoot -5.95613 -5.03611
ltoes -34.7076
154
root -1.21932 17.9668 20.9841 -155.806 -0.248645 178.529
lowerback -27.8082 -2.14234 -6.5224
upperback -1.58642 -1.34344 -0.172589
thorax 13.8782 -1.26968 2.98284
lowerneck -2.86527 -6.14777 -0.0635378
upperneck 15.3782 -8.07645 2.91386
head 5.22154 -3.48214 0.504351
rclavicle 7.60351e-015 7.95139e-016
rhumerus -38.7519 -16.0793 -79.4754
rradius 32.1694
rwrist -3.41373
rhand -6.59465 -58.5977
rfingers 7.12502
rthumb 19.2606 -87.6639
lclavicle 7.60351e-015 7.95139e-016
lhumerus -28.5545 1.37136 83.238
lradius 19.9621
lwrist -5.38104
lhand -23.1781 -12.505
lfingers 7.12502
lthumb 3.27113 17.4497
rfemur -22.8788 6.20848 19.8067
rtibia 7.12286
rfoot -15.7171 -3.9783
rtoes -33.8488
lfemur -22.5777 -5.95804 -22.9159
ltibia 6.69223
lfoot -5.97334 -4.95402
ltoes -34.7851
